<?xml version="1.0" encoding="UTF-8"?>
<!DOCTYPE svg PUBLIC "-//W3C//DTD SVG 1.1//EN" "http://www.w3.org/Graphics/SVG/1.1/DTD/svg11.dtd">
<svg xmlns="http://www.w3.org/2000/svg" version="1.1" width="128px" height="128px" style="shape-rendering:geometricPrecision; text-rendering:geometricPrecision; image-rendering:optimizeQuality; fill-rule:evenodd; clip-rule:evenodd" xmlns:xlink="http://www.w3.org/1999/xlink">
<g><path style="opacity:0.827" fill="#c4248e" d="M 40.5,17.5 C 63.1486,16.6456 72.3152,27.3123 68,49.5C 59.0053,63.4677 47.172,66.4677 32.5,58.5C 27.0147,63.485 21.6813,68.6516 16.5,74C 15.2068,74.49 13.8734,74.6567 12.5,74.5C 12.3433,73.1266 12.51,71.7932 13,70.5C 18.3484,65.3187 23.515,59.9853 28.5,54.5C 19.7434,37.9029 23.7434,25.5695 40.5,17.5 Z M 44.5,21.5 C 62.6622,23.8331 68.4955,33.4997 62,50.5C 52,61.1667 42,61.1667 32,50.5C 25.7794,36.28 29.9461,26.6134 44.5,21.5 Z"/></g>
<g><path style="opacity:0.89" fill="#c4248e" d="M 65.5,17.5 C 75.8387,17.3335 86.172,17.5002 96.5,18C 102.667,24.1667 108.833,30.3333 115,36.5C 115.5,60.8311 115.667,85.1644 115.5,109.5C 91.8333,109.5 68.1667,109.5 44.5,109.5C 44.1763,94.9215 44.5096,80.4215 45.5,66C 46.549,65.5078 47.549,65.6744 48.5,66.5C 49.4991,79.4829 49.8325,92.4829 49.5,105.5C 70.1667,105.5 90.8333,105.5 111.5,105.5C 111.5,83.8333 111.5,62.1667 111.5,40.5C 105.824,40.6661 100.157,40.4994 94.5,40C 94,39.5 93.5,39 93,38.5C 92.5006,32.8431 92.3339,27.1764 92.5,21.5C 83.5,21.5 74.5,21.5 65.5,21.5C 65.5,20.1667 65.5,18.8333 65.5,17.5 Z M 96.5,25.5 C 100.298,28.7961 103.964,32.2961 107.5,36C 103.848,36.4986 100.182,36.6653 96.5,36.5C 96.5,32.8333 96.5,29.1667 96.5,25.5 Z"/></g>
<g><path style="opacity:0.87" fill="#c4248e" d="M 97.5,51.5 C 102.894,50.398 105.894,52.5647 106.5,58C 105.403,62.7873 102.57,64.6206 98,63.5C 96.8589,65.6089 95.3589,67.4422 93.5,69C 96.3625,74.4481 94.6959,77.9481 88.5,79.5C 85.3135,79.2421 83.3135,77.5754 82.5,74.5C 80.5787,73.359 78.5787,73.1923 76.5,74C 73.8571,76.5661 71.0238,78.0661 68,78.5C 65.6027,81.2554 65.1027,84.2554 66.5,87.5C 66.5,91.5 64.5,93.5 60.5,93.5C 55.1429,92.8008 53.3096,89.8008 55,84.5C 55.3076,83.6919 55.8076,83.0253 56.5,82.5C 58.7094,81.8938 60.876,81.2272 63,80.5C 63.7922,78.4127 64.9588,76.5793 66.5,75C 63.1644,67.0271 65.831,63.6937 74.5,65C 77.572,70.6054 81.2387,71.2721 85.5,67C 93.0689,66.7017 95.9022,62.8684 94,55.5C 94.6897,53.6498 95.8564,52.3164 97.5,51.5 Z"/></g>
</svg>
